# xmcd
#
# Track frame offsets:
#	150
#	10015
#	19969
#	31807
#	41180
#	52495
#	61472
#	72514
#	82462
#	94087
#	106750
#	120282
#	130415
#	138625
#	164153
#	191344
#
# Disc length: 4020 seconds
#
# Revision: 1
# Processed by: cddbd v1.5.2PL0 Copyright (c) Steve Scherf et al.
# Submitted via: audiograbber 1.83.01
#
DISCID=ed0fb210
DTITLE=COR - Freistil Kampfstil Lebensstil
DYEAR=2005
DGENRE=Metal
TTITLE0=Freaks
TTITLE1=Was von mir
TTITLE2=White Trash
TTITLE3=Körpereinsatz
TTITLE4=Respekt
TTITLE5=Nichts gesehen
TTITLE6=Freistil
TTITLE7=Frieden vs. Krieg
TTITLE8=Seelenlos
TTITLE9=COR
TTITLE10=Herz ist weiß
TTITLE11=Springt von Bord
TTITLE12=Regierungserklärung
TTITLE13=Hör auf COR
TTITLE14=Farben
TTITLE15=Daten-CD
EXTD=
EXTT0=
EXTT1=
EXTT2=
EXTT3=
EXTT4=
EXTT5=
EXTT6=
EXTT7=
EXTT8=
EXTT9=
EXTT10=
EXTT11=
EXTT12=
EXTT13=
EXTT14=
EXTT15=
PLAYORDER=
